<?xml version="1.0" encoding="UTF-8" standalone="no" ?>
<!DOCTYPE svg PUBLIC "-//W3C//DTD SVG 1.1//EN" "http://www.w3.org/Graphics/SVG/1.1/DTD/svg11.dtd">
<svg xmlns="http://www.w3.org/2000/svg" xmlns:xlink="http://www.w3.org/1999/xlink" version="1.1" width="1280" height="1024" viewBox="0 0 1280 1024" xml:space="preserve">
<desc>Created with Fabric.js 4.4.0</desc>
<defs>
</defs>
<g transform="matrix(1 0 0 1 640 512)" id="background-logo"  >
<rect style="stroke: none; stroke-width: 0; stroke-dasharray: none; stroke-linecap: butt; stroke-dashoffset: 0; stroke-linejoin: miter; stroke-miterlimit: 4; fill: rgb(255,255,255); fill-opacity: 0; fill-rule: nonzero; opacity: 1;"  paint-order="stroke"  x="-640" y="-512" rx="0" ry="0" width="1280" height="1024" />
</g>
<g transform="matrix(1.9174664107485604 0 0 1.9174664107485604 801.2010321157227 509.0244116565)" id="text-logo-path-group"  >
<g style=""  paint-order="stroke"   >
		<g transform="matrix(1 0 0 1 -5.684342e-14 0)" id="text-logo-path-0"  >
<path style="stroke: rgb(255,255,255); stroke-width: 0; stroke-dasharray: none; stroke-linecap: butt; stroke-dashoffset: 0; stroke-linejoin: miter; stroke-miterlimit: 4; fill: rgb(224,62,78); fill-rule: nonzero; opacity: 1;"  paint-order="stroke"  transform=" translate(-179.795, 26.065)" d="M 40.27 -40.5 L 40.27 -52.67 L 0.92 -52.67 L 0.92 -40.5 L 14.24 -40.5 L 14.24 0 L 27.03 0 L 27.03 -40.5 Z M 40.5 -26.1 C 40.5 -11.09 52.82 1.08 67.68 1.08 C 77.62 1.08 87.01 -4.62 91.63 -13.4 L 80.31 -19.56 C 78 -14.86 72.92 -11.78 67.68 -11.78 C 59.83 -11.78 53.28 -18.33 53.28 -26.1 C 53.28 -33.96 59.91 -40.42 67.68 -40.42 C 72.92 -40.42 77.69 -37.65 80.23 -33.03 L 91.48 -39.04 C 86.78 -47.82 77.62 -53.21 67.68 -53.21 C 52.74 -53.21 40.5 -41.2 40.5 -26.1 Z M 130.05 -52.67 L 130.05 -33.03 L 108.95 -33.03 L 108.95 -52.67 L 96.1 -52.67 L 96.1 0 L 108.95 0 L 108.95 -20.87 L 130.05 -20.87 L 130.05 0 L 142.84 0 L 142.84 -52.67 Z M 175.02 1.08 C 190.11 1.08 202.13 -11.16 202.13 -26.1 C 202.13 -41.27 190.04 -53.21 175.02 -53.21 C 159.93 -53.21 147.84 -41.04 147.84 -26.1 C 147.84 -11.24 160.01 1.08 175.02 1.08 Z M 160.62 -26.1 C 160.62 -33.96 167.24 -40.42 175.02 -40.42 C 182.95 -40.42 189.27 -33.96 189.27 -26.1 C 189.27 -18.25 182.95 -11.78 175.02 -11.78 C 167.17 -11.78 160.62 -18.33 160.62 -26.1 Z M 227.15 -52.67 L 207.05 -52.67 L 207.05 0 L 219.84 0 L 219.84 -16.94 L 227.15 -16.94 C 237.08 -16.94 245.09 -24.95 245.09 -34.8 C 245.09 -44.66 237.08 -52.67 227.15 -52.67 Z M 219.84 -29.11 L 219.84 -40.5 L 227.15 -40.5 C 230.46 -40.5 232.85 -38.12 232.85 -34.8 C 232.85 -31.57 230.38 -29.11 227.15 -29.11 Z M 250.02 -52.67 L 250.02 0 L 262.88 0 L 262.88 -52.67 Z M 305.46 -40.5 L 305.46 -52.67 L 272.43 -52.67 L 272.43 0 L 285.28 0 L 285.28 -19.94 L 304.69 -19.94 L 304.69 -32.11 L 285.28 -32.11 L 285.28 -40.5 Z M 344.19 -52.67 L 333.49 -32.88 L 322.71 -52.67 L 308.23 -52.67 L 327.02 -17.86 L 327.02 0 L 339.88 0 L 339.88 -17.71 L 358.67 -52.67 Z" stroke-linecap="round" />
</g>
</g>
</g>
<g transform="matrix(0.8855704741270938 0 0 0.8855704741270938 285.3589264470107 512.6210417524693)" id="logo-logo"  >
<g style=""  paint-order="stroke"   >
		<g transform="matrix(0.3564 0 0 -0.3564 86.52600000000007 0.0013068000000089341)"  >
<linearGradient id="SVGID_148_470152" gradientUnits="userSpaceOnUse" gradientTransform="matrix(1 0 0 1 3824.99 601.8789999999999)"  x1="0" y1="0" x2="0" y2="590">
<stop offset="0%" style="stop-color:rgb(245,81,95);stop-opacity: 1"/>
<stop offset="100%" style="stop-color:rgb(159,4,27);stop-opacity: 1"/>
</linearGradient>
<path style="stroke: none; stroke-width: 1; stroke-dasharray: none; stroke-linecap: butt; stroke-dashoffset: 0; stroke-linejoin: miter; stroke-miterlimit: 4; fill: url(#SVGID_148_470152); fill-rule: nonzero; opacity: 1;"  paint-order="stroke"  transform=" translate(-4042.4049999999997, -897.0744999999998)" d="M 3824.99 601.879 L 3824.99 1029.45 L 3824.99 781.031 C 3824.99 1123.81 4257.65 1191.62 4259.8099999999995 1191.96 L 4259.82 1191.96 C 4257.65 1191.6200000000001 3824.99 1123.81 3824.99 781.0310000000001 L 3824.99 728.1020000000001 C 3824.99 1036.92 4155.65 1135.52 4257.2699999999995 1158.54 C 4258.7699999999995 1169.3899999999999 4259.799999999999 1180.3999999999999 4259.82 1191.68 C 4259.679999999999 1064.65 4162.389999999999 961.711 4042.3999999999996 961.711 L 4042.3999999999996 961.711 C 3870.58 897.59 3831.65 780.66 3824.99 708.691 L 3824.99 658.68 C 3825.7 651.6909999999999 3826.49 647.41 3826.6099999999997 646.7299999999999 C 3826.6099999999997 646.6289999999999 3826.5999999999995 646.531 3826.5899999999997 646.43 L 3824.99 638.3589999999999 L 3824.99 601.8789999999999 L 3824.99 601.8789999999999 L 3824.99 601.8789999999999 L 3824.99 601.8789999999999 C 3887.02 601.8789999999999 3942.9799999999996 637.531 3982.5899999999997 689.5199999999999 C 3942.9799999999996 637.5309999999998 3887.0199999999995 601.8789999999999 3824.99 601.8789999999999 M 4259.82 1191.9299999999998 C 4259.82 1191.9399999999998 4259.82 1191.9499999999998 4259.82 1191.9599999999998 L 4259.82 1191.9599999999998 C 4259.82 1191.9499999999998 4259.82 1191.9399999999998 4259.82 1191.9299999999998 M 3978.68 1192.2699999999998 C 3978.7 1192.2699999999998 3978.72 1192.2699999999998 3978.73 1192.2699999999998 L 3978.73 1192.2699999999998 C 3978.72 1192.2699999999998 3978.7 1192.2699999999998 3978.68 1192.2699999999998" stroke-linecap="round" />
</g>
		<g transform="matrix(0.3564 0 0 -0.3564 86.52600000000007 -31.926193199999943)"  >
<linearGradient id="SVGID_149_470153" gradientUnits="userSpaceOnUse" gradientTransform="matrix(1 0 0 1 3824.99 781.031)"  x1="0" y1="0" x2="0" y2="411">
<stop offset="0%" style="stop-color:rgb(245,81,95);stop-opacity: 1"/>
<stop offset="100%" style="stop-color:rgb(159,4,27);stop-opacity: 1"/>
</linearGradient>
<path style="stroke: none; stroke-width: 1; stroke-dasharray: none; stroke-linecap: butt; stroke-dashoffset: 0; stroke-linejoin: miter; stroke-miterlimit: 4; fill: url(#SVGID_149_470153); fill-rule: nonzero; opacity: 1;"  paint-order="stroke"  transform=" translate(-4042.4049999999997, -986.6505)" d="M 3824.99 781.031 L 3824.99 1029.45 C 3824.99 1119.3700000000001 3893.7999999999997 1192.25 3978.68 1192.27 C 3978.7 1192.27 3978.72 1192.27 3978.73 1192.27 L 3978.73 1192.27 C 3978.78 1192.27 3978.85 1192.27 3978.9 1192.27 L 3978.9 1192.27 L 4259.82 1191.96 C 4259.82 1191.96 4259.82 1191.96 4259.8099999999995 1191.96 C 4257.65 1191.6200000000001 3824.9899999999993 1123.81 3824.9899999999993 781.0310000000001" stroke-linecap="round" />
</g>
		<g transform="matrix(0.3564 0 0 -0.3564 163.99350000000027 -105.02779319999996)"  >
<path style="stroke: none; stroke-width: 1; stroke-dasharray: none; stroke-linecap: butt; stroke-dashoffset: 0; stroke-linejoin: miter; stroke-miterlimit: 4; fill: rgb(34,37,37); fill-rule: nonzero; opacity: 1;"  paint-order="stroke"  transform=" translate(-4259.82, -1191.8200000000002)" d="M 4259.82 1191.68 C 4259.82 1191.77 4259.82 1191.8400000000001 4259.82 1191.93 C 4259.82 1191.8500000000001 4259.82 1191.77 4259.82 1191.68 M 4259.82 1191.96 L 4259.82 1191.96 L 4259.82 1191.96 L 4259.82 1191.96" stroke-linecap="round" />
</g>
		<g transform="matrix(0.3564 0 0 -0.3564 86.52600000000007 -22.441993199999956)"  >
<path style="stroke: none; stroke-width: 1; stroke-dasharray: none; stroke-linecap: butt; stroke-dashoffset: 0; stroke-linejoin: miter; stroke-miterlimit: 4; fill: rgb(255,255,255); fill-opacity: 0; fill-rule: nonzero; opacity: 1;"  paint-order="stroke"  transform=" translate(-4042.4049999999997, -960.031)" d="M 3824.99 728.102 L 3824.99 781.031 C 3824.99 1123.81 4257.65 1191.62 4259.8099999999995 1191.96 L 4259.82 1191.96 C 4259.82 1191.95 4259.82 1191.94 4259.82 1191.93 C 4259.82 1191.8400000000001 4259.82 1191.77 4259.82 1191.68 C 4259.799999999999 1180.4 4258.7699999999995 1169.39 4257.2699999999995 1158.54 C 4155.65 1135.52 3824.99 1036.92 3824.99 728.102" stroke-linecap="round" />
</g>
		<g transform="matrix(0.3564 0 0 -0.3564 47.78729999999996 47.01640680000014)"  >
<linearGradient id="SVGID_150_470154" gradientUnits="userSpaceOnUse" gradientTransform="matrix(1 0 0 1 3824.99 601.8789999999999)"  x1="0" y1="0" x2="0" y2="326">
<stop offset="0%" style="stop-color:rgb(245,81,95);stop-opacity: 1"/>
<stop offset="100%" style="stop-color:rgb(159,4,27);stop-opacity: 1"/>
</linearGradient>
<path style="stroke: none; stroke-width: 1; stroke-dasharray: none; stroke-linecap: butt; stroke-dashoffset: 0; stroke-linejoin: miter; stroke-miterlimit: 4; fill: url(#SVGID_150_470154); fill-rule: nonzero; opacity: 1;"  paint-order="stroke"  transform=" translate(-3933.6949999999997, -765.125)" d="M 3824.99 601.879 C 3824.99 617.461 3825.54 632.301 3826.5899999999997 646.4300000000001 L 3826.6299999999997 646.629 C 3826.6299999999997 646.629 3826.6299999999997 646.672 3826.6099999999997 646.73 C 3846.5099999999998 912.539 4042.3999999999996 928.3710000000001 4042.3999999999996 928.3710000000001 L 4042.3999999999996 862.6090000000002 C 4042.3999999999996 801.1410000000002 4019.66 738.1720000000001 3982.5899999999997 689.5200000000002 C 3942.9799999999996 637.5310000000002 3887.0199999999995 601.8790000000002 3824.99 601.8790000000002" stroke-linecap="round" />
</g>
		<g transform="matrix(0.3564 0 0 -0.3564 9.345599999999877 97.23910680000006)"  >
<path style="stroke: none; stroke-width: 1; stroke-dasharray: none; stroke-linecap: butt; stroke-dashoffset: 0; stroke-linejoin: miter; stroke-miterlimit: 4; fill: rgb(159,4,27); fill-rule: nonzero; opacity: 1;"  paint-order="stroke"  transform=" translate(-3825.79, -624.1545000000001)" d="M 3824.99 601.879 L 3824.99 638.359 L 3826.5899999999997 646.4300000000001 C 3825.5399999999995 632.301 3824.99 617.461 3824.99 601.879" stroke-linecap="round" />
</g>
		<g transform="matrix(0.3564 0 0 -0.3564 47.78729999999996 33.08710680000013)"  >
<path style="stroke: none; stroke-width: 1; stroke-dasharray: none; stroke-linecap: butt; stroke-dashoffset: 0; stroke-linejoin: miter; stroke-miterlimit: 4; fill: rgb(255,255,255); fill-opacity: 0; fill-rule: nonzero; opacity: 1;"  paint-order="stroke"  transform=" translate(-3933.695, -804.2205)" d="M 3826.61 646.73 C 3826.4900000000002 647.41 3825.7000000000003 651.691 3824.9900000000002 658.6800000000001 L 3824.9900000000002 708.691 C 3831.65 780.6600000000001 3870.5800000000004 897.59 4042.4 961.711 L 4042.4 928.371 C 4042.4 928.371 3846.51 912.539 3826.61 646.73" stroke-linecap="round" />
</g>
		<g transform="matrix(0.3564 0 0 -0.3564 47.78729999999996 47.01640680000014)"  >
<linearGradient id="SVGID_151_470155" gradientUnits="userSpaceOnUse" gradientTransform="matrix(103.166 -190.856 190.856 103.166 3884.6 855.95)"  x1="0" y1="-3.410605131648481e-13" x2="1" y2="-3.410605131648481e-13">
<stop offset="0%" style="stop-color:rgb(116,189,51);stop-opacity: 1"/>
<stop offset="0.738916%" style="stop-color:rgb(116,189,51);stop-opacity: 1"/>
<stop offset="100%" style="stop-color:rgb(47,162,73);stop-opacity: 1"/>
</linearGradient>
<path style="stroke: none; stroke-width: 1; stroke-dasharray: none; stroke-linecap: butt; stroke-dashoffset: 0; stroke-linejoin: miter; stroke-miterlimit: 4; fill: url(#SVGID_151_470155); fill-rule: nonzero; opacity: 1;"  paint-order="stroke"  transform=" translate(-3933.6949999999997, -765.125)" d="M 3824.99 601.879 L 3824.99 601.879 C 3824.99 617.461 3825.54 632.301 3826.5899999999997 646.4300000000001 L 3826.5899999999997 646.4300000000001 C 3825.5399999999995 632.301 3824.99 617.461 3824.99 601.879 L 3824.99 601.879 M 3826.5899999999997 646.4300000000001 C 3826.6 646.5310000000001 3826.6099999999997 646.629 3826.6099999999997 646.73 C 3826.6299999999997 646.672 3826.6299999999997 646.629 3826.6299999999997 646.629 L 3826.5899999999997 646.4300000000001 M 3826.6099999999997 646.73 L 3826.6099999999997 646.73 C 3846.5099999999998 912.539 4042.3999999999996 928.3710000000001 4042.3999999999996 928.3710000000001 L 4042.3999999999996 928.3710000000001 C 4042.3999999999996 928.3710000000001 3846.5099999999998 912.5390000000001 3826.6099999999997 646.73" stroke-linecap="round" />
</g>
		<g transform="matrix(0.3564 0 0 -0.3564 -86.52600000000007 0.0013068000000089341)"  >
<linearGradient id="SVGID_152_470156" gradientUnits="userSpaceOnUse" gradientTransform="matrix(1 0 0 1 3339.36 601.8790000000001)"  x1="0" y1="0" x2="0" y2="590">
<stop offset="0%" style="stop-color:rgb(245,81,95);stop-opacity: 1"/>
<stop offset="100%" style="stop-color:rgb(159,4,27);stop-opacity: 1"/>
</linearGradient>
<path style="stroke: none; stroke-width: 1; stroke-dasharray: none; stroke-linecap: butt; stroke-dashoffset: 0; stroke-linejoin: miter; stroke-miterlimit: 4; fill: url(#SVGID_152_470156); fill-rule: nonzero; opacity: 1;"  paint-order="stroke"  transform=" translate(-3556.775, -897.0745)" d="M 3774.19 601.879 C 3711.76 601.879 3655.48 637.988 3615.82 690.5310000000001 C 3655.48 637.988 3711.76 601.879 3774.19 601.879 L 3774.19 601.879 L 3774.19 601.879 M 3774.19 638.359 L 3772.59 646.4300000000001 C 3772.58 646.5310000000001 3772.57 646.629 3772.56 646.73 C 3772.69 647.41 3773.48 651.691 3774.19 658.6800000000001 L 3774.19 638.359 M 3615.53 690.9100000000001 C 3615.4300000000003 691.0390000000001 3615.34 691.172 3615.2400000000002 691.301 C 3615.34 691.172 3615.4300000000003 691.0390000000001 3615.53 690.9100000000001 M 3774.19 708.691 C 3767.53 780.6600000000001 3728.6 897.59 3556.77 961.711 L 3556.77 928.371 L 3556.77 928.371 L 3556.77 862.6089999999999 L 3556.77 862.6089999999999 L 3556.77 961.7109999999999 C 3436.79 961.7109999999999 3339.5 1064.6499999999999 3339.36 1191.6799999999998 C 3339.3700000000003 1180.3999999999999 3340.4100000000003 1169.3899999999999 3341.9 1158.5399999999997 C 3443.53 1135.5199999999998 3774.19 1036.9199999999996 3774.19 728.1019999999997 L 3774.19 708.6909999999998 M 3339.36 1191.9399999999998 C 3339.36 1191.9399999999998 3339.36 1191.9499999999998 3339.36 1191.9599999999998 L 3339.36 1191.9599999999998 C 3339.36 1191.9499999999998 3339.36 1191.9399999999998 3339.36 1191.9399999999998 M 3620.5 1192.2699999999998 C 3620.48 1192.2699999999998 3620.46 1192.2699999999998 3620.45 1192.2699999999998 L 3620.45 1192.2699999999998 C 3620.46 1192.2699999999998 3620.48 1192.2699999999998 3620.5 1192.2699999999998" stroke-linecap="round" />
</g>
		<g transform="matrix(0.3564 0 0 -0.3564 -86.52600000000007 -31.926193199999943)"  >
<linearGradient id="SVGID_153_470157" gradientUnits="userSpaceOnUse" gradientTransform="matrix(1 0 0 1 3339.3599999999997 781.031)"  x1="0" y1="0" x2="0" y2="411">
<stop offset="0%" style="stop-color:rgb(245,81,95);stop-opacity: 1"/>
<stop offset="100%" style="stop-color:rgb(159,4,27);stop-opacity: 1"/>
</linearGradient>
<path style="stroke: none; stroke-width: 1; stroke-dasharray: none; stroke-linecap: butt; stroke-dashoffset: 0; stroke-linejoin: miter; stroke-miterlimit: 4; fill: url(#SVGID_153_470157); fill-rule: nonzero; opacity: 1;"  paint-order="stroke"  transform=" translate(-3556.7749999999996, -986.6505)" d="M 3774.19 781.031 L 3774.19 781.031 C 3774.19 1123.81 3341.53 1191.62 3339.37 1191.96 C 3339.3599999999997 1191.96 3339.3599999999997 1191.96 3339.3599999999997 1191.96 L 3620.2799999999997 1192.27 L 3620.2799999999997 1192.27 C 3620.33 1192.27 3620.39 1192.27 3620.45 1192.27 L 3620.45 1192.27 C 3620.46 1192.27 3620.48 1192.27 3620.5 1192.27 C 3705.38 1192.25 3774.19 1119.37 3774.19 1029.45 L 3774.19 1029.45 L 3774.19 1029.45 L 3774.19 781.0310000000001" stroke-linecap="round" />
</g>
		<g transform="matrix(0.3564 0 0 -0.3564 -163.99350000000004 -105.02779319999996)"  >
<path style="stroke: none; stroke-width: 1; stroke-dasharray: none; stroke-linecap: butt; stroke-dashoffset: 0; stroke-linejoin: miter; stroke-miterlimit: 4; fill: rgb(34,37,37); fill-rule: nonzero; opacity: 1;"  paint-order="stroke"  transform=" translate(-3339.3650000000002, -1191.8200000000002)" d="M 3339.36 1191.68 C 3339.36 1191.77 3339.36 1191.8500000000001 3339.36 1191.94 C 3339.36 1191.8500000000001 3339.36 1191.77 3339.36 1191.68 M 3339.36 1191.96 L 3339.36 1191.96 C 3339.36 1191.96 3339.36 1191.96 3339.3700000000003 1191.96 L 3339.36 1191.96" stroke-linecap="round" />
</g>
		<g transform="matrix(0.3564 0 0 -0.3564 -86.52600000000007 -22.441993199999956)"  >
<path style="stroke: none; stroke-width: 1; stroke-dasharray: none; stroke-linecap: butt; stroke-dashoffset: 0; stroke-linejoin: miter; stroke-miterlimit: 4; fill: rgb(255,255,255); fill-opacity: 0; fill-rule: nonzero; opacity: 1;"  paint-order="stroke"  transform=" translate(-3556.775, -960.031)" d="M 3774.19 728.102 C 3774.19 1036.92 3443.53 1135.52 3341.9 1158.54 C 3340.4100000000003 1169.3899999999999 3339.37 1180.3999999999999 3339.36 1191.68 C 3339.36 1191.77 3339.36 1191.8500000000001 3339.36 1191.94 C 3339.36 1191.94 3339.36 1191.95 3339.36 1191.96 L 3339.36 1191.96 C 3341.53 1191.6200000000001 3774.19 1123.81 3774.19 781.0310000000001 L 3774.19 728.1020000000001" stroke-linecap="round" />
</g>
		<g transform="matrix(0.3564 0 0 -0.3564 -47.78729999999996 47.01640680000014)"  >
<linearGradient id="SVGID_154_470158" gradientUnits="userSpaceOnUse" gradientTransform="matrix(1 0 0 1 3556.7700000000004 601.8789999999999)"  x1="0" y1="0" x2="0" y2="326">
<stop offset="0%" style="stop-color:rgb(245,81,95);stop-opacity: 1"/>
<stop offset="100%" style="stop-color:rgb(159,4,27);stop-opacity: 1"/>
</linearGradient>
<path style="stroke: none; stroke-width: 1; stroke-dasharray: none; stroke-linecap: butt; stroke-dashoffset: 0; stroke-linejoin: miter; stroke-miterlimit: 4; fill: url(#SVGID_154_470158); fill-rule: nonzero; opacity: 1;"  paint-order="stroke"  transform=" translate(-3665.4800000000005, -765.125)" d="M 3774.19 601.879 C 3711.76 601.879 3655.48 637.988 3615.82 690.5310000000001 C 3615.73 690.6600000000001 3615.63 690.7810000000001 3615.53 690.9100000000001 C 3615.4300000000003 691.0390000000001 3615.34 691.172 3615.2400000000002 691.301 C 3578.9700000000003 739.6990000000001 3556.7700000000004 801.8910000000001 3556.7700000000004 862.609 L 3556.7700000000004 862.609 L 3556.7700000000004 928.3710000000001 L 3556.7700000000004 928.3710000000001 C 3556.7700000000004 928.3710000000001 3752.6700000000005 912.5390000000001 3772.5600000000004 646.73 C 3772.55 646.672 3772.55 646.629 3772.55 646.629 L 3772.59 646.4300000000001 C 3773.6400000000003 632.301 3774.19 617.461 3774.19 601.879" stroke-linecap="round" />
</g>
		<g transform="matrix(0.3564 0 0 -0.3564 -9.33569999999986 97.23910680000006)"  >
<path style="stroke: none; stroke-width: 1; stroke-dasharray: none; stroke-linecap: butt; stroke-dashoffset: 0; stroke-linejoin: miter; stroke-miterlimit: 4; fill: rgb(255,255,255); fill-opacity: 0; fill-rule: nonzero; opacity: 1;"  paint-order="stroke"  transform=" translate(-3773.3900000000003, -624.1545000000001)" d="M 3774.19 601.879 L 3774.19 601.879 L 3774.19 601.879 L 3774.19 601.879 M 3774.19 601.879 C 3774.19 617.461 3773.64 632.301 3772.59 646.4300000000001 L 3774.19 638.359 L 3774.19 601.879" stroke-linecap="round" />
</g>
		<g transform="matrix(0.3564 0 0 -0.3564 -47.78729999999996 33.08710680000013)"  >
<path style="stroke: none; stroke-width: 1; stroke-dasharray: none; stroke-linecap: butt; stroke-dashoffset: 0; stroke-linejoin: miter; stroke-miterlimit: 4; fill: rgb(255,255,255); fill-opacity: 0; fill-rule: nonzero; opacity: 1;"  paint-order="stroke"  transform=" translate(-3665.48, -804.2205)" d="M 3772.56 646.73 C 3752.67 912.539 3556.77 928.3710000000001 3556.77 928.3710000000001 L 3556.77 961.7110000000001 C 3728.6 897.59 3767.53 780.66 3774.19 708.691 L 3774.19 658.68 C 3773.48 651.6909999999999 3772.69 647.41 3772.56 646.7299999999999" stroke-linecap="round" />
</g>
		<g transform="matrix(0.3564 0 0 -0.3564 -47.78729999999996 47.01640680000014)"  >
<linearGradient id="SVGID_155_470159" gradientUnits="userSpaceOnUse" gradientTransform="matrix(-103.166 -190.856 -190.856 103.166 3714.58 855.95)"  x1="0" y1="-3.410605131648481e-13" x2="1" y2="-3.410605131648481e-13">
<stop offset="0%" style="stop-color:rgb(116,189,51);stop-opacity: 1"/>
<stop offset="0.738916%" style="stop-color:rgb(116,189,51);stop-opacity: 1"/>
<stop offset="100%" style="stop-color:rgb(47,162,73);stop-opacity: 1"/>
</linearGradient>
<path style="stroke: none; stroke-width: 1; stroke-dasharray: none; stroke-linecap: butt; stroke-dashoffset: 0; stroke-linejoin: miter; stroke-miterlimit: 4; fill: url(#SVGID_155_470159); fill-rule: nonzero; opacity: 1;"  paint-order="stroke"  transform=" translate(-3665.4800000000005, -765.125)" d="M 3774.19 601.879 L 3774.19 601.879 L 3774.19 601.879 C 3774.19 617.461 3773.64 632.301 3772.59 646.4300000000001 L 3772.59 646.4300000000001 C 3773.6400000000003 632.301 3774.19 617.461 3774.19 601.879 L 3774.19 601.879 M 3772.59 646.4300000000001 L 3772.55 646.629 C 3772.55 646.629 3772.55 646.672 3772.5600000000004 646.73 C 3772.5700000000006 646.629 3772.5800000000004 646.5310000000001 3772.5900000000006 646.4300000000001 M 3772.5600000000004 646.73 C 3752.6700000000005 912.539 3556.7700000000004 928.3710000000001 3556.7700000000004 928.3710000000001 L 3556.7700000000004 928.3710000000001 C 3556.7700000000004 928.3710000000001 3752.6700000000005 912.5390000000001 3772.5600000000004 646.73 L 3772.5600000000004 646.73" stroke-linecap="round" />
</g>
</g>
</g>
</svg>