<?xml version="1.0" encoding="utf-8"?>
<!-- Svg Vector Icons : http://www.onlinewebfonts.com/icon -->
<!DOCTYPE svg PUBLIC "-//W3C//DTD SVG 1.1//EN" "http://www.w3.org/Graphics/SVG/1.1/DTD/svg11.dtd">
<svg version="1.1" xmlns="http://www.w3.org/2000/svg" xmlns:xlink="http://www.w3.org/1999/xlink" x="0px" y="0px" viewBox="0 0 1000 1000" enable-background="new 0 0 1000 1000" xml:space="preserve">
<metadata> Svg Vector Icons : http://www.onlinewebfonts.com/icon </metadata>
<g><path d="M111.4,990h122.7V622.5H111.4V990z M561.3,10H438.7v530.8h122.7V10z M234.1,10H111.4v326.7h122.7L234.1,10L234.1,10z M888.6,10H765.9v204.2h122.7V10z M929.5,255H725c-22.6,0-40.9,18.3-40.9,40.8v122.5c0,22.5,18.3,40.8,40.9,40.8h204.5c22.6,0,40.9-18.3,40.9-40.8V295.8C970.4,273.3,952.1,255,929.5,255z M767.2,417.1h-40.9v-120h40.9V417.1z M846.4,417.1h-40.9v-120h40.9V417.1z M930.8,417.1h-40.9v-120h40.9V417.1z M765.9,990h122.7V500H765.9V990z M602.3,581.7H397.7c-22.6,0-40.9,18.3-40.9,40.8V745c0,22.5,18.3,40.8,40.9,40.8h204.5c22.6,0,40.9-18.3,40.9-40.8V622.5C643.2,600,624.9,581.7,602.3,581.7z M439.9,743.7H399v-120h40.9V743.7z M519.2,743.7h-40.9v-120h40.9V743.7z M603.5,743.7h-40.9v-120h40.9V743.7z M438.7,990h122.7V826.7H438.7V990z M275,377.5H70.5c-22.6,0-40.9,18.3-40.9,40.8v122.5c0,22.5,18.3,40.8,40.9,40.8H275c22.6,0,40.9-18.3,40.9-40.8V418.3C315.9,395.8,297.6,377.5,275,377.5z M112.7,539.5H71.7V419.6h40.9V539.5z M194.5,539.5h-40.9V419.6h40.9V539.5z M276.3,539.5h-40.9V419.6h40.9V539.5z"/></g>
</svg>