<?xml version="1.0" encoding="utf-8"?>
<!-- Svg Vector Icons : http://www.onlinewebfonts.com/icon -->
<!DOCTYPE svg PUBLIC "-//W3C//DTD SVG 1.1//EN" "http://www.w3.org/Graphics/SVG/1.1/DTD/svg11.dtd">
<svg version="1.1" xmlns="http://www.w3.org/2000/svg" xmlns:xlink="http://www.w3.org/1999/xlink" x="0px" y="0px" viewBox="0 0 1000 1000" enable-background="new 0 0 1000 1000" xml:space="preserve">
<metadata> Svg Vector Icons : http://www.onlinewebfonts.com/icon </metadata>
<g><path d="M948.3,536.3H990L500,28.1L10,536.3h43.5h138V500H95.6L500,79.3L907.8,500h-99.3v36.3H948.3z M844.8,572.6v344.6c0,30.2-24.5,54.6-54.1,54.6H209.3c-29.9,0-54.1-24.2-54.1-54.6V572.6h36.3v344.9c0,10.1,8,18.1,17.8,18.1h581.4c10,0,17.8-8.1,17.8-18.1V572.6H844.8z M300.4,518c0-30,24.4-54.3,54.7-54.3H645c30.2,0,54.7,24.4,54.7,54.3v254.3c0,30-24.4,54.3-54.7,54.3H355c-30.2,0-54.7-24.4-54.7-54.3V518z M336.7,518.2c0-10,8.1-18.2,18.5-18.2h289.7c10.2,0,18.5,8.4,18.5,18.2v254c0,10-8.1,18.2-18.5,18.2H355.2c-10.2,0-18.5-8.4-18.5-18.2V518.2z"/><path d="M155.2,500h36.3v108.9h-36.3V500z"/><path d="M808.5,500h36.3v108.9h-36.3V500z"/></g>
</svg>