<?xml version="1.0" encoding="utf-8"?>
<!-- Svg Vector Icons : http://www.onlinewebfonts.com/icon -->
<!DOCTYPE svg PUBLIC "-//W3C//DTD SVG 1.1//EN" "http://www.w3.org/Graphics/SVG/1.1/DTD/svg11.dtd">
<svg version="1.1" xmlns="http://www.w3.org/2000/svg" xmlns:xlink="http://www.w3.org/1999/xlink" x="0px" y="0px" viewBox="0 0 1000 1000" enable-background="new 0 0 1000 1000" xml:space="preserve">
<metadata> Svg Vector Icons : http://www.onlinewebfonts.com/icon </metadata>
<g><g transform="translate(0.000000,512.000000) scale(0.100000,-0.100000)"><path d="M2525.4,4994.1c-807.8-153.1-1489.3-754.2-1946.9-1719C-62.7,1923.6-58.9,145.2,586.2-1208.3c216.3-451.8,428.8-752.3,750.4-1062.4c321.6-310.1,658.5-507.3,1035.6-606.8c162.7-44,225.9-49.8,484.3-49.8c260.3,0,319.7,5.7,484.3,49.8c227.8,61.3,497.7,185.7,696.8,323.5c187.6,128.3,482.4,411.6,641.3,610.7c103.4,134,147.4,170.4,312,269.9c589.6,350.3,1353.4,666.2,1971.7,811.7c191.4,44,264.2,51.7,794.4,65.1c582,15.3,645.1,23,880.6,99.5c861.4,279.5,1391.7,1156.3,1234.7,2046.4c-107.2,612.6-474.7,1089.2-1051,1359.2c-289.1,135.9-405.8,153.1-1054.8,170.4c-631.7,17.2-725.5,30.6-1169.6,164.6c-493.9,149.3-1150.5,440.3-1606.1,712.1c-164.6,99.6-208.7,135.9-312,269.9c-158.9,199.1-453.7,482.4-641.3,610.7c-201,139.7-472.8,264.2-696.8,321.6C3101.6,5020.9,2745.6,5036.2,2525.4,4994.1z M3074.8,3759.4c444.1-137.8,876.8-687.2,1110.3-1410.8c315.9-984,254.6-2134.5-162.7-3028.4c-292.9-622.1-756.2-1035.6-1165.8-1035.6c-227.8,0-530.3,160.8-746.6,398.2c-369.5,402-627.9,1006.9-740.8,1726.7c-45.9,304.4-45.9,957.2,0,1263.4c160.8,1047.1,662.4,1877.9,1252,2078.9C2782,3807.2,2912.1,3809.1,3074.8,3759.4z"/><path d="M3273.9,2497.8c-329.3-248.9-576.2-631.7-679.6-1047.1c-44-183.8-45.9-639.4,0-819.3c105.3-419.2,350.3-798.3,679.6-1047.1c68.9-51.7,130.2-93.8,137.8-93.8c24.9,0,147.4,289.1,208.7,488.2c208.7,683.4,208.7,1441.5,0,2124.9c-61.3,199.1-183.8,488.1-208.7,488.1C3404.1,2591.6,3342.9,2549.5,3273.9,2497.8z"/><path d="M8400.4-1384.4c-7.6-7.6-273.7-19.2-591.5-26.8c-566.6-11.5-582-13.4-798.3-70.8c-402-107.2-1060.5-352.2-1106.5-411.6c-9.6-13.4-78.5-371.4-157-798.3c-124.4-694.9-137.8-792.5-128.3-939.9c19.2-306.3,139.8-564.7,371.4-796.4c470.9-470.9,1234.7-465.2,1709.5,11.5c141.7,141.7,237.4,291,296.7,463.3c15.3,44,128.3,627.9,248.9,1297.9s224,1232.8,227.8,1251.9C8480.8-1371,8429.1-1355.7,8400.4-1384.4z"/></g></g>
</svg>