<?xml version="1.0" encoding="utf-8"?>
<!-- Svg Vector Icons : http://www.onlinewebfonts.com/icon -->
<!DOCTYPE svg PUBLIC "-//W3C//DTD SVG 1.1//EN" "http://www.w3.org/Graphics/SVG/1.1/DTD/svg11.dtd">
<svg version="1.1" xmlns="http://www.w3.org/2000/svg" xmlns:xlink="http://www.w3.org/1999/xlink" x="0px" y="0px" viewBox="0 0 1000 1000" enable-background="new 0 0 1000 1000" xml:space="preserve">
<metadata> Svg Vector Icons : http://www.onlinewebfonts.com/icon </metadata>
<g><path d="M951.5,232l-1.1-0.5c-24.1-24.6-57.8-39.6-94.7-39.6h-31.6c0-4.5-0.5-8.8-3.2-12.8L726.8,15.4C720.4,4.7,707,1,696.3,6.8l0,0l-212.4,112L291.6,7.9l-0.8-0.5c-11.3-6.4-24.9-3.2-31.3,8l-94.4,163.7c-2.4,4-3.2,8.3-2.7,12.8h-17.9c-36.6,0-70.4,15-94.4,39.6h-0.5C25,255.6,10,289.3,10,325.7v536c0,36.9,15,70.1,39.1,94.1l0.5,0.5l0.5,0.5c24,23.5,57.8,39.1,94.4,39.1h711.2c36.9,0,70.6-15.5,94.7-39.1c24.6-24.6,39.6-58.3,39.6-95.2v-536C990,289.8,975,256.1,951.5,232L951.5,232z M698.4,56.6L698.4,56.6l78.1,135.3H610.7l-80.5-46.5L698.4,56.6L698.4,56.6z M287.6,57.7L287.6,57.7C365.2,102,442.8,147,520.3,191.9H209.8L287.6,57.7L287.6,57.7z M914.6,717.2L914.6,717.2h-284c-4.3,0-8-1.9-10.7-4.3l0,0c-2.7-3-4.3-6.4-4.3-10.7V485.6c0-4.3,1.6-8,4.3-10.7c2.7-2.7,6.4-4.3,10.7-4.3h284V717.2L914.6,717.2z M914.6,425.4L914.6,425.4h-284c-16.6,0-31.6,6.7-42.5,17.9l0,0c-11,10.7-17.9,25.7-17.9,42.3v216.6c0,16.6,7,31.6,17.9,42.3v0.5c11,10.2,26,17.1,42.5,17.1h284v99.5c0,16-6.7,31-17.1,41.2c-10.7,11-25.7,17.7-41.7,17.7H144.5c-16.3,0-31-6.7-41.5-17.7c-10.7-10.2-17.4-25.1-17.4-41.2v-536c0-15.8,6.4-30.5,17.4-41.2v-0.2c10.4-10.4,25.1-17.1,41.5-17.1h711.2c16.6,0,31,6.7,41.7,17.4c10.4,10.7,17.1,25.4,17.1,41.2L914.6,425.4L914.6,425.4z M702.2,661.6L702.2,661.6c17.7,17.1,41.2,27.8,67.4,27.8c26.8,0,50.3-10.7,67.4-27.8c17.7-17.4,28.3-41.5,28.3-67.7c0-25.7-10.2-48.9-27-66.3l-1.1-1.3c-17.4-17.1-40.9-27.8-67.7-27.8c-25.7,0-49.2,9.9-66.1,26.7l-1.6,1.1c-17.1,17.1-27.5,41.2-27.5,67.7c0,26.2,10.4,50.3,27.5,67.7H702.2L702.2,661.6z M734,558.3L734,558.3l1.1-1.1c8.8-8.5,21.1-13.9,34.5-13.9c13.9,0,26.8,5.9,35.6,15l1.1,1.1c8.8,8.8,13.6,20.9,13.6,34.5s-5.3,26.5-14.7,35.6c-8.8,9.1-21.7,14.7-35.6,14.7c-13.9,0-26.2-5.6-35.6-14.7c-9.4-9.1-14.7-21.9-14.7-35.6C719.3,580,724.7,567.4,734,558.3L734,558.3z"/></g>
</svg>